<svg xmlns="http://www.w3.org/2000/svg" version="1.1" xmlns:xlink="http://www.w3.org/1999/xlink" xmlns:svgjs="http://svgjs.dev/svgjs" width="1500" height="1500" viewBox="0 0 1500 1500"><rect width="1500" height="1500" fill="#000000"></rect><g transform="matrix(0.6666666666666666,0,0,0.6666666666666666,249.39393939393938,565.0584275053444)"><svg viewBox="0 0 396 147" data-background-color="#dedad7" preserveAspectRatio="xMidYMid meet" height="556" width="1500" xmlns="http://www.w3.org/2000/svg" xmlns:xlink="http://www.w3.org/1999/xlink"><g id="tight-bounds" transform="matrix(1,0,0,1,0.2400000000000091,-0.15536558440366832)"><svg viewBox="0 0 395.52 147.31073116880734" height="147.31073116880734" width="395.52"><g><svg viewBox="0 0 395.52 147.31073116880734" height="147.31073116880734" width="395.52"><g><svg viewBox="0 0 395.52 147.31073116880734" height="147.31073116880734" width="395.52"><g><svg viewBox="0 0 641.48587742595 238.9202913584158" height="147.31073116880734" width="395.52"><g transform="matrix(1,0,0,1,245.96587742594997,63.330244689108895)"><svg viewBox="0 0 395.52 112.259801980198" height="112.259801980198" width="395.52"><g id="textblocktransform"><svg viewBox="0 0 395.52 112.259801980198" height="112.259801980198" width="395.52" id="textblock"><g><svg viewBox="0 0 395.52 112.259801980198" height="112.259801980198" width="395.52"><g transform="matrix(1,0,0,1,0,0)"><svg width="395.52" viewBox="0.25 -37.75 136.33 38.7" height="112.259801980198" data-palette-color="#575c5f"><path d="M8.25 0.3Q7.75 0.3 7.5-0.08 7.25-0.45 7.25-1L7.25-1 7.25-5.45 7.25-9.9 7.15-17.9Q7-23.25 7-25.9L7-25.9 7.05-27.35 7.05-30.6Q7.05-36 6.95-36L6.95-36 1.3-36Q0.9-36 0.58-36.2 0.25-36.4 0.25-36.75L0.25-36.75Q0.25-37.15 0.4-37.3 0.55-37.45 1.2-37.55L1.2-37.55Q1.9-37.7 3.2-37.7L3.2-37.7 8.2-37.7 13.7-37.75Q14.3-37.75 14.53-37.55 14.75-37.35 14.75-36.9L14.75-36.9Q14.75-36.15 13.8-36.15L13.8-36.15 11.55-36.15 9.35-36.15 8.9-36.1 8.95-33.2 8.95-29.3 8.95-9 8.95-4.85 9-1.15 9-1.05Q9-0.65 8.95-0.38 8.9-0.1 8.75 0.05L8.75 0.05Q8.6 0.3 8.25 0.3L8.25 0.3ZM20.5 0.65Q19.6 0.65 19.5-0.4L19.5-0.4 19.5-1.05Q19.55-1.3 19.55-1.65L19.55-1.65 19.35-1.85Q19.75-2.9 19.75-3.9L19.75-3.9Q19.75-5.05 19.6-7.2L19.6-7.2 19.5-10.5Q19.5-13 19.65-18L19.65-18Q19.85-22.45 19.85-25.55L19.85-25.55 19.75-28.55Q19.65-29.9 19.65-31.55L19.65-31.55Q19.65-32.3 20-32.63 20.35-32.95 21.1-32.95L21.1-32.95Q21.6-32.95 21.9-32.65L21.9-32.65Q22-32.6 23.35-32.45L23.35-32.45Q24.6-32.3 25.5-32L25.5-32Q26.45-31.7 26.45-31.25L26.45-31.25Q26.45-30.75 25.5-30.25L25.5-30.25Q22.65-31.2 21.45-31.2L21.45-31.2 21.2-30.9Q21.25-30.45 21.25-28.75L21.25-28.75Q21.25-26.6 21.15-24.9L21.15-24.9Q21.1-23.15 21.1-21L21.1-21Q21.1-19.6 21.8-19.6L21.8-19.6 22.6-19.65Q23-19.7 23.45-19.7L23.45-19.7Q25.4-19.7 25.4-18.8L25.4-18.8Q25.4-18.25 25.15-17.88 24.9-17.5 24.4-17.5L24.4-17.5Q23.65-17.5 23.25-17.9L23.25-17.9 21.65-18.15 21.4-18.15 21.15-17.9 21.15-17.75Q21.25-16.9 21.25-13.8L21.25-13.8Q21.25-11.85 21.2-10.25L21.2-10.25 21.15-6.7Q21.15-4.75 21.3-2.7L21.3-2.7Q21.35-1.55 21.8-1.18 22.25-0.8 23.45-0.8L23.45-0.8 24.35-0.85Q24.8-0.9 25.35-0.9L25.35-0.9Q26.8-0.9 26.8-0.25L26.8-0.25Q26.8 0.65 24.6 0.65L24.6 0.65 20.5 0.65ZM38.25 0.35Q35.95 0.35 34.84-0.2 33.75-0.75 33.22-2.33 32.7-3.9 32.3-7.35L32.3-7.35Q31.7-12.4 31.7-15.2L31.7-15.2Q31.7-16.9 31.9-19.1L31.9-19.1 32.2-22.25Q32.45-26 32.77-27.93 33.09-29.85 34.22-31.33 35.34-32.8 37.7-33.05L37.7-33.05Q37.95-33.1 38.5-33.1L38.5-33.1Q40.05-33.1 40.05-32.4L40.05-32.4Q40.05-32.1 39.72-31.88 39.4-31.65 39.05-31.65L39.05-31.65 38.55-31.7 38.09-31.75Q37.25-31.75 36.57-31.2 35.9-30.65 35.45-29.6L35.45-29.6Q34.4-27.1 34.09-24.7L34.09-24.7Q33.7-21.55 33.59-19.2L33.59-19.2 33.55-15.35Q33.55-12.9 33.7-11.7L33.7-11.7Q34.05-11.15 34.17-10.03 34.3-8.9 34.4-6.95L34.4-6.95Q34.5-5.2 34.84-3.98 35.2-2.75 36.09-1.95L36.09-1.95Q37.09-1.1 38.84-1.1L38.84-1.1Q40.3-1.1 40.9-2.7L40.9-2.7Q41.59-4.4 41.7-6.2L41.7-6.2Q41.84-8.45 41.84-10L41.84-10 41.84-12.75Q41.34-13.25 40.09-13.25L40.09-13.25 39.7-13.25Q39.45-13.2 39.15-13.2L39.15-13.2Q37.95-13.2 37.95-13.8L37.95-13.8Q37.95-14.65 39.15-14.65L39.15-14.65Q40-14.65 40.55-14.6L40.55-14.6 41.65-14.55Q42.59-14.4 43.15-14.2L43.15-14.2Q43.75-14 43.75-13.65L43.75-13.65Q43.75-13 43.45-11.8L43.45-11.8Q43.2-10.4 43.2-9.9L43.2-9.9Q43.2-7.8 43.3-6.1L43.3-6.1Q43.34-4.35 43.34-2.25L43.34-2.25Q40.8 0.35 38.25 0.35L38.25 0.35ZM50.19 0.65Q49.49 0.65 49.34-0.5L49.34-0.5Q49.44-0.8 49.44-2.15L49.44-2.15Q49.44-6.75 49.59-15.8L49.59-15.8Q49.74-24.8 49.74-28.8L49.74-28.8 49.84-30.6 49.99-32.1Q49.99-32.45 50.34-32.45L50.34-32.45Q50.59-32.45 51.04-32.3L51.04-32.3 51.19-32.25Q51.19-31.15 51.14-30.25L51.14-30.25 51.14-28.3 51.14-22.85Q51.19-20.45 51.19-17.4L51.19-17.4Q51.14-17.15 51.14-16.3L51.14-16.3 51.09-15.25Q51.04-14.25 51.04-13.2L51.04-13.2Q51.04-12.05 51.09-11.1L51.09-11.1 51.14-8.95 50.99-8.55 51.04-8.6Q51.04-8.45 50.99-8.4L50.99-8.4 50.99-8.2Q50.99-7.8 51.14-7.5L51.14-7.5 50.99-2.7 50.99-2.4Q50.99-1.55 51.04-1.4L51.04-1.4Q51.04-1.15 51.29-1.15L51.29-1.15 53.89-1.05Q55.04-1.05 55.47-1.03 55.89-1 55.99-1L55.99-1 56.14-1Q56.39-1 56.64-0.73 56.89-0.45 56.89-0.15L56.89-0.15Q56.89 0.45 56.09 0.5L56.09 0.5Q55.24 0.45 51.94 0.45L51.94 0.45 52.04 0.5Q51.54 0.5 51.09 0.55L51.09 0.55Q50.69 0.65 50.19 0.65L50.19 0.65ZM62.69 0.65Q61.79 0.65 61.69-0.4L61.69-0.4 61.69-1.05Q61.74-1.3 61.74-1.65L61.74-1.65 61.54-1.85Q61.94-2.9 61.94-3.9L61.94-3.9Q61.94-5.05 61.79-7.2L61.79-7.2 61.69-10.5Q61.69-13 61.84-18L61.84-18Q62.04-22.45 62.04-25.55L62.04-25.55 61.94-28.55Q61.84-29.9 61.84-31.55L61.84-31.55Q61.84-32.3 62.19-32.63 62.54-32.95 63.29-32.95L63.29-32.95Q63.79-32.95 64.09-32.65L64.09-32.65Q64.19-32.6 65.54-32.45L65.54-32.45Q66.79-32.3 67.69-32L67.69-32Q68.64-31.7 68.64-31.25L68.64-31.25Q68.64-30.75 67.69-30.25L67.69-30.25Q64.84-31.2 63.64-31.2L63.64-31.2 63.39-30.9Q63.44-30.45 63.44-28.75L63.44-28.75Q63.44-26.6 63.34-24.9L63.34-24.9Q63.29-23.15 63.29-21L63.29-21Q63.29-19.6 63.99-19.6L63.99-19.6 64.79-19.65Q65.19-19.7 65.64-19.7L65.64-19.7Q67.59-19.7 67.59-18.8L67.59-18.8Q67.59-18.25 67.34-17.88 67.09-17.5 66.59-17.5L66.59-17.5Q65.84-17.5 65.44-17.9L65.44-17.9 63.84-18.15 63.59-18.15 63.34-17.9 63.34-17.75Q63.44-16.9 63.44-13.8L63.44-13.8Q63.44-11.85 63.39-10.25L63.39-10.25 63.34-6.7Q63.34-4.75 63.49-2.7L63.49-2.7Q63.54-1.55 63.99-1.18 64.44-0.8 65.64-0.8L65.64-0.8 66.54-0.85Q66.99-0.9 67.54-0.9L67.54-0.9Q68.99-0.9 68.99-0.25L68.99-0.25Q68.99 0.65 66.79 0.65L66.79 0.65 62.69 0.65ZM82.89 0.85L82.19 0.6Q81.59-0.05 80.89-2.85 80.19-5.65 79.59-9.15L79.59-9.15Q79.19-12 78.44-14.8L78.44-14.8Q77.84-17.3 77.29-17.3L77.29-17.3 77.14-17.3Q76.04-17.3 76.04-16.6L76.04-16.6Q76.04-13 76.44-5.65L76.44-5.65Q76.64-1.15 76.89-0.4L76.89-0.4 76.49 0.45 75.79 0.45 75.39 0.05Q74.59-23.05 74.59-31.45L74.59-31.45Q74.59-32 74.66-32.35 74.74-32.7 74.99-33L74.99-33Q75.19-33.35 75.69-33.35L75.69-33.35Q78.24-33.35 79.79-32.1 81.34-30.85 81.34-28.5L81.34-28.5 81.34-24.85Q81.34-23.9 80.71-22.3 80.09-20.7 79.34-19.35L79.34-19.35 78.69-18.1Q79.24-15.55 80.86-8.93 82.49-2.3 82.64-1.9L82.64-1.9Q82.69-1.85 82.76-1.65 82.84-1.45 83.09-1.05L83.09-1.05Q83.44-0.35 83.44 0.15L83.44 0.15Q83.44 0.85 82.89 0.85L82.89 0.85ZM76.29-18.55Q77.24-18.55 77.99-19.5 78.74-20.45 79.19-21.95L79.19-21.95Q79.99-25 79.99-26.8L79.99-26.8Q79.99-27.95 79.86-28.7 79.74-29.45 79.44-30.3L79.44-30.3Q78.84-32.05 76.59-32.05L76.59-32.05Q76.34-32.05 76.19-31.63 76.04-31.2 76.04-30.75L76.04-30.75Q76.04-27.4 76.14-24.7L76.14-24.7Q76.19-22 76.19-18.65L76.19-18.65 76.29-18.55ZM94.24 0.95Q88.39 0.95 88.39-17.45L88.39-17.45 88.39-19.2Q88.39-33.15 91.99-33.15L91.99-33.15Q92.24-33.15 92.69-33L92.69-33Q94.29-32.45 95.84-32.3L95.84-32.3Q96.79-32.1 97.74-30.35L97.74-30.35Q98.79-28.55 99.31-25.6 99.84-22.65 99.84-19.55L99.84-19.55 99.74-19.3Q99.74-17.65 99.79-16.35L99.79-16.35 99.84-13.35Q99.84-10.8 99.64-8.75L99.64-8.75Q99.34-5.65 98.64-3.4L98.64-3.4Q98.19-2.05 97.61-1.15 97.04-0.25 96.19 0.35L96.19 0.35Q95.39 0.95 94.24 0.95L94.24 0.95ZM94.04-0.5Q95.99-0.5 96.94-3.25L96.94-3.25Q97.89-6.05 98.09-8.95L98.09-8.95Q98.29-11.95 98.29-13.75L98.29-13.75Q98.29-15.75 97.99-19.65L97.99-19.65Q97.74-24 97.74-25.55L97.74-25.55 97.54-25.95 97.64-26.2Q97.64-28.4 96.41-30 95.19-31.6 93.44-31.6L93.44-31.6Q91.14-31.6 90.69-29.4L90.69-29.4Q90.59-28.65 90.49-27.25L90.49-27.25Q90.49-23.55 90.19-22.2L90.19-22.2Q90.19-21.45 90.04-19.85L90.04-19.85 89.94-17.5Q89.94-16.4 89.99-15.55L89.99-15.55 90.04-13.55Q90.04-11.2 90.44-8.15L90.44-8.15Q90.74-5.9 91.14-4.35 91.54-2.8 92.29-1.7L92.29-1.7Q93.04-0.5 94.04-0.5L94.04-0.5ZM119.08 0.2Q118.68 0.2 118.51-0.1 118.33-0.4 118.18-1L118.18-1Q118.13-1.4 117.98-1.7L117.98-1.7 118.03-1.85Q117.63-4.2 116.33-7.6L116.33-7.6 115.43-10.2Q115.33-10.3 114.48-12.75L114.48-12.75 114.08-13.95Q109.58-27.85 108.43-29L108.43-29Q108.03-27.65 108.03-25.5L108.03-25.5Q108.03-24.35 108.08-23.5L108.08-23.5 108.13-21.55 108.08-20.35Q108.03-19.8 108.03-19.15L108.03-19.15Q108.03-18.05 108.13-17.25L108.13-17.25Q108.23-15.65 108.23-15.65L108.23-15.65 108.08-15.65Q108.08-7.3 108.43-6.45L108.43-6.45 108.43-1.95Q108.63-1.55 108.63-0.9L108.63-0.9Q108.63-0.5 108.36-0.2 108.08 0.1 107.68 0.1L107.68 0.1Q106.63 0.1 106.63-2.6L106.63-2.6 106.73-4.2Q106.83-4.95 106.83-5.85L106.83-5.85Q106.83-8.25 106.68-13.05L106.68-13.05Q106.53-17.85 106.53-20.25L106.53-20.25Q106.53-21.7 106.68-24.7L106.68-24.7Q106.83-27.65 106.83-29.1L106.83-29.1 106.83-29.75Q106.83-32.2 107.73-32.95L107.73-32.95 107.88-32.8 108.38-32.9Q108.58-32.85 108.83-32.6L108.83-32.6Q109.03-32.4 109.03-32.15L109.03-32.15 109.13-31.85Q109.13-31.75 109.16-31.68 109.18-31.6 109.18-31.6L109.18-31.6Q109.98-28.05 112.78-21.65L112.78-21.65Q115.63-14.9 116.33-12.7L116.33-12.7Q116.83-10.95 117.13-9.6L117.13-9.6Q118.08-5.35 119.38-3.05L119.38-3.05 119.48-3.2Q120.63-14.3 120.63-30.45L120.63-30.45 120.58-31.05Q120.53-31.3 120.53-31.7L120.53-31.7Q120.53-32.75 121.23-32.75L121.23-32.75Q121.68-32.75 122.01-32.3 122.33-31.85 122.33-31.3L122.33-31.3 122.33-27.95 122.08-27.55Q122.08-22.8 121.53-11.95 120.98-1.1 120.48-0.15L120.48-0.15 119.63 0.05 119.63 0.1 119.58 0.05 119.08 0.2ZM130.28 0.65Q129.38 0.65 129.28-0.4L129.28-0.4 129.28-1.05Q129.33-1.3 129.33-1.65L129.33-1.65 129.13-1.85Q129.53-2.9 129.53-3.9L129.53-3.9Q129.53-5.05 129.38-7.2L129.38-7.2 129.28-10.5Q129.28-13 129.43-18L129.43-18Q129.63-22.45 129.63-25.55L129.63-25.55 129.53-28.55Q129.43-29.9 129.43-31.55L129.43-31.55Q129.43-32.3 129.78-32.63 130.13-32.95 130.88-32.95L130.88-32.95Q131.38-32.95 131.68-32.65L131.68-32.65Q131.78-32.6 133.13-32.45L133.13-32.45Q134.38-32.3 135.28-32L135.28-32Q136.23-31.7 136.23-31.25L136.23-31.25Q136.23-30.75 135.28-30.25L135.28-30.25Q132.43-31.2 131.23-31.2L131.23-31.2 130.98-30.9Q131.03-30.45 131.03-28.75L131.03-28.75Q131.03-26.6 130.93-24.9L130.93-24.9Q130.88-23.15 130.88-21L130.88-21Q130.88-19.6 131.58-19.6L131.58-19.6 132.38-19.65Q132.78-19.7 133.23-19.7L133.23-19.7Q135.18-19.7 135.18-18.8L135.18-18.8Q135.18-18.25 134.93-17.88 134.68-17.5 134.18-17.5L134.18-17.5Q133.43-17.5 133.03-17.9L133.03-17.9 131.43-18.15 131.18-18.15 130.93-17.9 130.93-17.75Q131.03-16.9 131.03-13.8L131.03-13.8Q131.03-11.85 130.98-10.25L130.98-10.25 130.93-6.7Q130.93-4.75 131.08-2.7L131.08-2.7Q131.13-1.55 131.58-1.18 132.03-0.8 133.23-0.8L133.23-0.8 134.13-0.85Q134.58-0.9 135.13-0.9L135.13-0.9Q136.58-0.9 136.58-0.25L136.58-0.25Q136.58 0.65 134.38 0.65L134.38 0.65 130.28 0.65Z" opacity="1" transform="matrix(1,0,0,1,0,0)" fill="#ffffff" class="wordmark-text-0" data-fill-palette-color="primary" id="text-0"></path></svg></g></svg></g></svg></g></svg></g><g><svg viewBox="0 0 219.46403241367275 238.9202913584158" height="238.9202913584158" width="219.46403241367275"><g><svg xmlns="http://www.w3.org/2000/svg" xmlns:xlink="http://www.w3.org/1999/xlink" version="1.1" x="0" y="0" viewBox="10.822 7.8500000000000005 68.35600000000001 74.41600000000001" enable-background="new 0 0 90 90" xml:space="preserve" height="238.9202913584158" width="219.46403241367275" class="icon-icon-0" data-fill-palette-color="accent" id="icon-0"><g fill="#575c5f" data-fill-palette-color="accent"><path d="M74.686 24.856H15.314c-2.477 0-4.492-2.015-4.492-4.492v-8.022c0-2.477 2.015-4.492 4.492-4.492h59.372c2.477 0 4.492 2.015 4.492 4.492v8.022C79.177 22.84 77.163 24.856 74.686 24.856zM15.314 9.753c-1.428 0-2.589 1.161-2.589 2.589v8.022c0 1.428 1.161 2.589 2.589 2.589h59.372c1.428 0 2.589-1.161 2.589-2.589v-8.022c0-1.428-1.162-2.589-2.589-2.589H15.314z" fill="#ffffff" data-fill-palette-color="accent"></path></g><g fill="#575c5f" data-fill-palette-color="accent"><path d="M45.311 82.266c-9.354 0-17.467-0.529-23.62-1.122-5.716-0.551-9.95-5.389-9.64-11.013 0.001-0.017 0.002-0.035 0.004-0.052l4.837-44.098c0.058-0.529 0.534-0.91 1.063-0.853 0.529 0.058 0.911 0.534 0.853 1.063l-4.834 44.071c-0.239 4.578 3.227 8.513 7.902 8.964 10.74 1.035 27.508 1.876 46.394 0.001 4.685-0.465 8.147-4.411 7.894-8.99l-4.975-44.043c-0.06-0.529 0.321-1.006 0.849-1.066 0.53-0.059 1.006 0.321 1.066 0.849l4.979 44.069c0.002 0.017 0.003 0.035 0.004 0.052 0.329 5.626-3.9 10.478-9.626 11.046C60.24 81.96 52.417 82.266 45.311 82.266z" fill="#ffffff" data-fill-palette-color="accent"></path></g><g fill="#575c5f" data-fill-palette-color="accent"><path d="M60.472 64.023H29.528c-2.755 0-4.997-2.241-4.997-4.996V39.684c0-2.755 2.241-4.997 4.997-4.997h30.944c2.755 0 4.996 2.242 4.996 4.997v19.343C65.468 61.782 63.227 64.023 60.472 64.023zM29.528 36.614c-1.692 0-3.069 1.377-3.069 3.069v19.343c0 1.692 1.377 3.069 3.069 3.069h30.944c1.692 0 3.069-1.377 3.069-3.069V39.684c0-1.692-1.377-3.069-3.069-3.069H29.528z" fill="#ffffff" data-fill-palette-color="accent"></path></g><g fill="#575c5f" data-fill-palette-color="accent"><path d="M45 20.66c-0.525 0-0.951-0.426-0.951-0.951v-6.712c0-0.525 0.426-0.951 0.951-0.951 0.525 0 0.951 0.426 0.951 0.951v6.712C45.951 20.234 45.525 20.66 45 20.66z" fill="#ffffff" data-fill-palette-color="accent"></path></g><g fill="#575c5f" data-fill-palette-color="accent"><path d="M31.743 20.66c-0.525 0-0.951-0.426-0.951-0.951v-6.712c0-0.525 0.426-0.951 0.951-0.951 0.525 0 0.951 0.426 0.951 0.951v6.712C32.694 20.234 32.268 20.66 31.743 20.66z" fill="#ffffff" data-fill-palette-color="accent"></path></g><g fill="#575c5f" data-fill-palette-color="accent"><path d="M58.327 20.66c-0.525 0-0.951-0.426-0.951-0.951v-6.712c0-0.525 0.426-0.951 0.951-0.951 0.525 0 0.951 0.426 0.951 0.951v6.712C59.278 20.234 58.852 20.66 58.327 20.66z" fill="#ffffff" data-fill-palette-color="accent"></path></g><g fill="#575c5f" data-fill-palette-color="accent"><path d="M18.486 20.66c-0.525 0-0.951-0.426-0.951-0.951v-6.712c0-0.525 0.426-0.951 0.951-0.951 0.525 0 0.951 0.426 0.951 0.951v6.712C19.437 20.234 19.011 20.66 18.486 20.66z" fill="#ffffff" data-fill-palette-color="accent"></path></g><g fill="#575c5f" data-fill-palette-color="accent"><path d="M71.514 20.66c-0.525 0-0.951-0.426-0.951-0.951v-6.712c0-0.525 0.426-0.951 0.951-0.951 0.525 0 0.951 0.426 0.951 0.951v6.712C72.465 20.234 72.039 20.66 71.514 20.66z" fill="#ffffff" data-fill-palette-color="accent"></path></g><g fill="#575c5f" data-fill-palette-color="accent"><path d="M45 58.668c-0.208 0-0.416-0.067-0.59-0.202l-0.471-0.364c-4.339-3.359-6.959-5.386-8.487-8.098-1.469-2.6-1.293-4.655-0.886-5.921 0.495-1.541 1.611-2.781 3.142-3.491 0.788-0.365 1.643-0.55 2.542-0.55 1.875 0 3.607 0.788 4.751 2.091 1.144-1.303 2.876-2.091 4.751-2.091 0.899 0 1.753 0.185 2.54 0.549 1.532 0.711 2.648 1.95 3.143 3.491 0.407 1.266 0.583 3.321-0.887 5.922-1.529 2.712-4.152 4.742-8.497 8.105l-0.46 0.356C45.416 58.601 45.208 58.668 45 58.668zM40.249 41.97c-0.617 0-1.199 0.125-1.731 0.371-1.037 0.481-1.789 1.309-2.118 2.332-0.415 1.29-0.162 2.806 0.73 4.384 1.326 2.351 3.657 4.168 7.87 7.429 4.213-3.261 6.544-5.079 7.869-7.428 0.892-1.579 1.145-3.095 0.73-4.385-0.329-1.023-1.081-1.851-2.118-2.332-0.531-0.246-1.113-0.37-1.73-0.37-1.677 0-3.235 0.93-3.877 2.313-0.158 0.34-0.499 0.558-0.874 0.558-0.375 0-0.716-0.218-0.874-0.558C43.484 42.899 41.926 41.97 40.249 41.97z" fill="#ffffff" data-fill-palette-color="accent"></path></g></svg></g></svg></g></svg></g></svg></g></svg></g><defs></defs></svg><rect width="395.52" height="147.31073116880734" fill="none" stroke="none" visibility="hidden"></rect></g></svg></g></svg>